# Blender v2.75 (sub 0) OBJ File: ''
# www.blender.org
o 2015-08-07_00002_Plane.001
v -0.888889 -0.500000 -0.452293
v 0.888889 -0.500000 -0.452293
v -0.888889 0.500000 -0.452293
v 0.888889 0.500000 -0.452293
v -0.800000 -0.500000 -0.504802
v -0.711111 -0.500000 -0.546786
v -0.622222 -0.500000 -0.578840
v -0.533333 -0.500000 -0.608078
v -0.444444 -0.500000 -0.634051
v -0.355556 -0.500000 -0.656310
v -0.266667 -0.500000 -0.674405
v -0.177778 -0.500000 -0.687886
v -0.088889 -0.500000 -0.696304
v -0.000000 -0.500000 -0.699210
v 0.088889 -0.500000 -0.696304
v 0.177778 -0.500000 -0.687886
v 0.266667 -0.500000 -0.674405
v 0.355556 -0.500000 -0.656310
v 0.444444 -0.500000 -0.634051
v 0.533333 -0.500000 -0.608078
v 0.622222 -0.500000 -0.578840
v 0.711111 -0.500000 -0.546786
v 0.800000 -0.500000 -0.504802
v 0.800000 0.500000 -0.504803
v 0.711111 0.500000 -0.546787
v 0.622222 0.500000 -0.578840
v 0.533333 0.500000 -0.608078
v 0.444444 0.500000 -0.634051
v 0.355556 0.500000 -0.656310
v 0.266667 0.500000 -0.674405
v 0.177778 0.500000 -0.687886
v 0.088889 0.500000 -0.696305
v 0.000000 0.500000 -0.699211
v -0.088889 0.500000 -0.696305
v -0.177778 0.500000 -0.687886
v -0.266667 0.500000 -0.674405
v -0.355556 0.500000 -0.656310
v -0.444444 0.500000 -0.634051
v -0.533333 0.500000 -0.608078
v -0.622222 0.500000 -0.578840
v -0.711111 0.500000 -0.546787
v -0.800000 0.500000 -0.504803
v -0.888889 -0.500000 -0.481054
v 0.888889 -0.500000 -0.481054
v -0.888889 0.500000 -0.481054
v 0.888889 0.500000 -0.481054
v -0.800000 -0.500000 -0.533564
v -0.711111 -0.500000 -0.575548
v -0.622222 -0.500000 -0.607601
v -0.533333 -0.500000 -0.636839
v -0.444444 -0.500000 -0.662812
v -0.355556 -0.500000 -0.685071
v -0.266667 -0.500000 -0.703166
v -0.177778 -0.500000 -0.716647
v -0.088889 -0.500000 -0.725066
v -0.000000 -0.500000 -0.727972
v 0.088889 -0.500000 -0.725066
v 0.177778 -0.500000 -0.716647
v 0.266667 -0.500000 -0.703166
v 0.355556 -0.500000 -0.685071
v 0.444444 -0.500000 -0.662812
v 0.533333 -0.500000 -0.636839
v 0.622222 -0.500000 -0.607601
v 0.711111 -0.500000 -0.575548
v 0.800000 -0.500000 -0.533564
v 0.800000 0.500000 -0.533564
v 0.711111 0.500000 -0.575548
v 0.622222 0.500000 -0.607601
v 0.533333 0.500000 -0.636839
v 0.444444 0.500000 -0.662812
v 0.355556 0.500000 -0.685071
v 0.266667 0.500000 -0.703166
v 0.177778 0.500000 -0.716647
v 0.088889 0.500000 -0.725066
v 0.000000 0.500000 -0.727972
v -0.088889 0.500000 -0.725066
v -0.177778 0.500000 -0.716647
v -0.266667 0.500000 -0.703166
v -0.355556 0.500000 -0.685071
v -0.444444 0.500000 -0.662812
v -0.533333 0.500000 -0.636839
v -0.622222 0.500000 -0.607601
v -0.711111 0.500000 -0.575548
v -0.800000 0.500000 -0.533564
vt 0.923311 0.017936
vt 0.970345 0.017936
vt 0.970345 0.958627
vt 0.923311 0.958627
vt 0.029655 0.017936
vt 0.076689 0.017936
vt 0.076689 0.958627
vt 0.029655 0.958627
vt 0.123724 0.017936
vt 0.123724 0.958627
vt 0.170758 0.017936
vt 0.170758 0.958627
vt 0.217793 0.017936
vt 0.217793 0.958627
vt 0.264827 0.017936
vt 0.264827 0.958627
vt 0.311862 0.017936
vt 0.311862 0.958627
vt 0.358896 0.017936
vt 0.358896 0.958627
vt 0.405931 0.017936
vt 0.405931 0.958627
vt 0.452965 0.017936
vt 0.452965 0.958627
vt 0.500000 0.017936
vt 0.500000 0.958627
vt 0.547035 0.017936
vt 0.547035 0.958627
vt 0.594069 0.017936
vt 0.594069 0.958627
vt 0.641104 0.017936
vt 0.641104 0.958627
vt 0.688138 0.017936
vt 0.688138 0.958627
vt 0.735173 0.017936
vt 0.735173 0.958627
vt 0.782207 0.017936
vt 0.782207 0.958627
vt 0.829242 0.017936
vt 0.829242 0.958627
vt 0.876276 0.017936
vt 0.876276 0.958627
vn -0.326200 -0.717600 0.615300
vn 0.412500 -0.554300 0.722800
vn 0.412500 0.554300 0.722800
vn -0.326200 0.717600 0.615300
vn -0.412500 -0.554300 0.722800
vn 0.326200 -0.717600 0.615300
vn 0.326200 0.717600 0.615300
vn -0.412500 0.554300 0.722800
vn 0.267000 -0.717900 0.642800
vn 0.267000 0.717900 0.642800
vn 0.229400 -0.710300 0.665500
vn 0.229400 0.710300 0.665500
vn 0.208500 -0.710900 0.671700
vn 0.208500 0.710900 0.671700
vn 0.183900 -0.711500 0.678200
vn 0.183900 0.711500 0.678200
vn 0.155300 -0.712100 0.684600
vn 0.155300 0.712100 0.684600
vn 0.122600 -0.712800 0.690500
vn 0.122600 0.712800 0.690500
vn 0.085600 -0.713500 0.695400
vn 0.085600 0.713500 0.695400
vn 0.044400 -0.714100 0.698600
vn 0.044400 0.714100 0.698600
vn 0.000000 -0.714500 0.699600
vn 0.000000 0.714500 0.699600
vn -0.044400 -0.714100 0.698600
vn -0.044400 0.714100 0.698600
vn -0.085600 -0.713500 0.695400
vn -0.085600 0.713500 0.695400
vn -0.122600 -0.712800 0.690500
vn -0.122600 0.712800 0.690500
vn -0.155300 -0.712100 0.684600
vn -0.155300 0.712100 0.684600
vn -0.183900 -0.711500 0.678200
vn -0.183900 0.711500 0.678200
vn -0.208500 -0.710900 0.671700
vn -0.208500 0.710900 0.671700
vn -0.229400 -0.710300 0.665500
vn -0.229400 0.710300 0.665500
vn -0.267000 -0.717900 0.642800
vn -0.267000 0.717900 0.642800
vn 0.335900 -0.696900 -0.633700
vn 0.335900 0.696900 -0.633700
vn 0.687700 0.610700 -0.392500
vn 0.687700 -0.610700 -0.392500
vn -0.687700 -0.610700 -0.392500
vn -0.687700 0.610700 -0.392500
vn -0.335900 0.696900 -0.633700
vn -0.335900 -0.696900 -0.633700
vn -0.275200 0.696600 -0.662600
vn -0.275200 -0.696600 -0.662600
vn -0.231500 0.703900 -0.671500
vn -0.231500 -0.703900 -0.671500
vn -0.210800 0.703300 -0.678900
vn -0.210800 -0.703300 -0.678900
vn -0.186200 0.702700 -0.686600
vn -0.186200 -0.702700 -0.686600
vn -0.157500 0.702100 -0.694400
vn -0.157500 -0.702100 -0.694400
vn -0.124500 0.701500 -0.701700
vn -0.124500 -0.701500 -0.701700
vn -0.087100 0.700800 -0.707900
vn -0.087100 -0.700800 -0.707900
vn -0.045300 0.700200 -0.712500
vn -0.045300 -0.700200 -0.712500
vn 0.000000 0.699800 -0.714300
vn 0.000000 -0.699800 -0.714300
vn 0.045300 0.700200 -0.712500
vn 0.045300 -0.700200 -0.712500
vn 0.087100 0.700800 -0.707900
vn 0.087100 -0.700800 -0.707900
vn 0.124500 0.701500 -0.701700
vn 0.124500 -0.701500 -0.701700
vn 0.157500 0.702100 -0.694400
vn 0.157500 -0.702100 -0.694400
vn 0.186200 0.702700 -0.686600
vn 0.186200 -0.702700 -0.686600
vn 0.210800 0.703300 -0.678900
vn 0.210800 -0.703300 -0.678900
vn 0.231500 0.703900 -0.671500
vn 0.231500 -0.703900 -0.671500
vn 0.275200 0.696600 -0.662600
vn 0.275200 -0.696600 -0.662600
s 1
f 23/1/1 2/2/2 4/3/3 24/4/4
f 1/5/5 5/6/6 42/7/7 3/8/8
f 5/6/6 6/9/9 41/10/10 42/7/7
f 6/9/9 7/11/11 40/12/12 41/10/10
f 7/11/11 8/13/13 39/14/14 40/12/12
f 8/13/13 9/15/15 38/16/16 39/14/14
f 9/15/15 10/17/17 37/18/18 38/16/16
f 10/17/17 11/19/19 36/20/20 37/18/18
f 11/19/19 12/21/21 35/22/22 36/20/20
f 12/21/21 13/23/23 34/24/24 35/22/22
f 13/23/23 14/25/25 33/26/26 34/24/24
f 14/25/25 15/27/27 32/28/28 33/26/26
f 15/27/27 16/29/29 31/30/30 32/28/28
f 16/29/29 17/31/31 30/32/32 31/30/30
f 17/31/31 18/33/33 29/34/34 30/32/32
f 18/33/33 19/35/35 28/36/36 29/34/34
f 19/35/35 20/37/37 27/38/38 28/36/36
f 20/37/37 21/39/39 26/40/40 27/38/38
f 21/39/39 22/41/41 25/42/42 26/40/40
f 22/41/41 23/1/1 24/4/4 25/42/42
f 65/1/43 66/4/44 46/3/45 44/2/46
f 43/5/47 45/8/48 84/7/49 47/6/50
f 47/6/50 84/7/49 83/10/51 48/9/52
f 48/9/52 83/10/51 82/12/53 49/11/54
f 49/11/54 82/12/53 81/14/55 50/13/56
f 50/13/56 81/14/55 80/16/57 51/15/58
f 51/15/58 80/16/57 79/18/59 52/17/60
f 52/17/60 79/18/59 78/20/61 53/19/62
f 53/19/62 78/20/61 77/22/63 54/21/64
f 54/21/64 77/22/63 76/24/65 55/23/66
f 55/23/66 76/24/65 75/26/67 56/25/68
f 56/25/68 75/26/67 74/28/69 57/27/70
f 57/27/70 74/28/69 73/30/71 58/29/72
f 58/29/72 73/30/71 72/32/73 59/31/74
f 59/31/74 72/32/73 71/34/75 60/33/76
f 60/33/76 71/34/75 70/36/77 61/35/78
f 61/35/78 70/36/77 69/38/79 62/37/80
f 62/37/80 69/38/79 68/40/81 63/39/82
f 63/39/82 68/40/81 67/42/83 64/41/84
f 64/41/84 67/42/83 66/4/44 65/1/43
f 15/27/27 57/27/70 58/29/72 16/29/29
f 2/2/2 44/2/46 46/3/45 4/3/3
f 29/34/34 71/34/75 72/32/73 30/32/32
f 16/29/29 58/29/72 59/31/74 17/31/31
f 42/7/7 84/7/49 45/8/48 3/8/8
f 30/32/32 72/32/73 73/30/71 31/30/30
f 17/31/31 59/31/74 60/33/76 18/33/33
f 1/5/5 43/5/47 47/6/50 5/6/6
f 31/30/30 73/30/71 74/28/69 32/28/28
f 18/33/33 60/33/76 61/35/78 19/35/35
f 5/6/6 47/6/50 48/9/52 6/9/9
f 32/28/28 74/28/69 75/26/67 33/26/26
f 19/35/35 61/35/78 62/37/80 20/37/37
f 6/9/9 48/9/52 49/11/54 7/11/11
f 33/26/26 75/26/67 76/24/65 34/24/24
f 20/37/37 62/37/80 63/39/82 21/39/39
f 7/11/11 49/11/54 50/13/56 8/13/13
f 34/24/24 76/24/65 77/22/63 35/22/22
f 21/39/39 63/39/82 64/41/84 22/41/41
f 8/13/13 50/13/56 51/15/58 9/15/15
f 35/22/22 77/22/63 78/20/61 36/20/20
f 22/41/41 64/41/84 65/1/43 23/1/1
f 9/15/15 51/15/58 52/17/60 10/17/17
f 36/20/20 78/20/61 79/18/59 37/18/18
f 4/3/3 46/3/45 66/4/44 24/4/4
f 10/17/17 52/17/60 53/19/62 11/19/19
f 37/18/18 79/18/59 80/16/57 38/16/16
f 24/4/4 66/4/44 67/42/83 25/42/42
f 11/19/19 53/19/62 54/21/64 12/21/21
f 38/16/16 80/16/57 81/14/55 39/14/14
f 25/42/42 67/42/83 68/40/81 26/40/40
f 12/21/21 54/21/64 55/23/66 13/23/23
f 39/14/14 81/14/55 82/12/53 40/12/12
f 26/40/40 68/40/81 69/38/79 27/38/38
f 13/23/23 55/23/66 56/25/68 14/25/25
f 40/12/12 82/12/53 83/10/51 41/10/10
f 3/8/8 45/8/48 43/5/47 1/5/5
f 27/38/38 69/38/79 70/36/77 28/36/36
f 14/25/25 56/25/68 57/27/70 15/27/27
f 41/10/10 83/10/51 84/7/49 42/7/7
f 23/1/1 65/1/43 44/2/46 2/2/2
f 28/36/36 70/36/77 71/34/75 29/34/34
